<svg version="1.1" xmlns="http://www.w3.org/2000/svg" xmlns:xlink="http://www.w3.org/1999/xlink" width="33.82396" height="20.50041" viewBox="0,0,33.82396,20.50041"><g transform="translate(-223.08802,-169.74979)"><g data-paper-data="{&quot;isPaintingLayer&quot;:true}" fill-rule="nonzero" stroke-linejoin="miter" stroke-miterlimit="10" stroke-dasharray="" stroke-dashoffset="0" style="mix-blend-mode: normal"><path d="M247.47917,172.2498v-2h7.33333v2z" fill="#7e8b9e" stroke="#575e75" stroke-width="1" stroke-linecap="butt"/><path d="M223.58802,189.75021v-17.21748h32.82396v17.21748z" fill="#7e8b9e" stroke="#575e75" stroke-width="1" stroke-linecap="butt"/><path d="M252.53525,172.61399h3.8261v17.11679h-3.74802z" fill-opacity="0.42745" fill="#575e75" stroke="none" stroke-width="0" stroke-linecap="round"/><path d="M223.73877,189.42872v-2.01374h28.89716v2.01374z" fill-opacity="0.42745" fill="#575e75" stroke="none" stroke-width="0" stroke-linecap="butt"/><path d="M252.32569,189.14808v-1.70012l0.57282,-0.05415v1.75427z" fill="#6d788c" stroke="none" stroke-width="0" stroke-linecap="butt"/><path d="M231.59264,181.14147c0,-4.64326 3.7641,-8.40736 8.40736,-8.40736c4.64326,0 8.40736,3.76411 8.40736,8.40736c0,4.64326 -3.7641,8.40736 -8.40736,8.40736c-4.64326,0 -8.40736,-3.7641 -8.40736,-8.40736z" fill="#ffffff" stroke="#575e75" stroke-width="1" stroke-linecap="butt"/><path d="M252.54861,172.31091v-1.83334h2.05556v1.83334z" fill-opacity="0.42745" fill="#575e75" stroke="none" stroke-width="0" stroke-linecap="butt"/><path d="M234,181c0,-3.31371 2.68629,-6 6,-6c3.31371,0 6,2.68629 6,6c0,3.31371 -2.68629,6 -6,6c-3.31371,0 -6,-2.68629 -6,-6z" fill="#7cd4ff" stroke="none" stroke-width="0" stroke-linecap="butt"/><path d="M239.96875,176.39375c0,0.25 -0.25,0.25 -0.25,0.25h-0.125c-1.56607,0 -3.10403,1.29472 -3.44496,2.81063c0,0 -0.06063,0.24254 -0.30317,0.1819c-0.24254,-0.06063 -0.1819,-0.30317 -0.1819,-0.30317c0.46139,-1.72688 2.09195,-3.18937 3.93004,-3.18937h0.125c0,0 0.25,0 0.25,0.25z" fill="#c8edff" stroke="none" stroke-width="0.5" stroke-linecap="butt"/></g></g></svg>